<svg width="82" height="23" viewBox="0 0 82 23" fill="none" xmlns="http://www.w3.org/2000/svg">
<path d="M0.12361 7.0152C2.23517e-08 7.6494 0 8.4305 0 9.7388V12.886C0 14.5092 1.49012e-07 15.3208 0.23607 16.0474C0.44495 16.6902 0.78662 17.282 1.23892 17.7844C1.7501 18.3521 2.45297 18.7579 3.85872 19.5695L6.5842 21.1431C7.8283 21.8614 8.5219 22.2618 9.1829 22.4545V12.7441C9.1829 12.2587 8.9178 11.812 8.4917 11.5796L0.12361 7.0152Z" fill="#262626"/>
<path d="M22.9113 8.4414V13.5045C22.9113 14.2046 23.2155 14.8701 23.7448 15.3282L27.3889 18.4817C27.6022 18.6622 27.8236 18.8098 28.0532 18.9246C28.291 19.0312 28.5207 19.0845 28.7421 19.0845C29.2177 19.0845 29.5991 18.9287 29.8861 18.6171C30.1813 18.2972 30.3289 17.8831 30.3289 17.3746V4.58126C30.3289 4.07281 30.1813 3.66276 29.8861 3.35113C29.5991 3.0313 29.2177 2.87138 28.7421 2.87138C28.5207 2.87138 28.291 2.92469 28.0532 3.0313C27.8236 3.13791 27.6022 3.28552 27.3889 3.47414L23.7477 6.6152C23.2166 7.0734 22.9113 7.74 22.9113 8.4414Z" fill="black"/>
<path d="M22.9113 8.4414V13.5045C22.9113 14.2046 23.2155 14.8701 23.7448 15.3282L27.3889 18.4817C27.6022 18.6622 27.8236 18.8098 28.0532 18.9246C28.291 19.0312 28.5207 19.0845 28.7421 19.0845C29.2177 19.0845 29.5991 18.9287 29.8861 18.6171C30.1813 18.2972 30.3289 17.8831 30.3289 17.3746V4.58126C30.3289 4.07281 30.1813 3.66276 29.8861 3.35113C29.5991 3.0313 29.2177 2.87138 28.7421 2.87138C28.5207 2.87138 28.291 2.92469 28.0532 3.0313C27.8236 3.13791 27.6022 3.28552 27.3889 3.47414L23.7477 6.6152C23.2166 7.0734 22.9113 7.74 22.9113 8.4414Z" fill="#0443F2"/>
<path d="M1.34145 5.20693C1.24012 5.15166 1.13386 5.11423 1.02627 5.09356C1.09416 5.0069 1.16509 4.92246 1.23897 4.8404C1.75015 4.27267 2.45303 3.86686 3.85877 3.05525L6.5843 1.48166C7.99 0.670047 8.6929 0.264238 9.4402 0.105398C10.1014 -0.0351325 10.7847 -0.0351325 11.4459 0.105398C12.1931 0.264238 12.896 0.670047 14.3017 1.48166L16.9951 3.03669C17.0059 3.04286 17.0166 3.04905 17.0273 3.05526C18.4331 3.86687 19.136 4.27268 19.6471 4.84041C20.0994 5.34274 20.4411 5.93452 20.65 6.5774C20.8861 7.304 20.8861 8.1156 20.8861 9.7388V12.886C20.8861 14.5092 20.8861 15.3208 20.65 16.0474C20.4411 16.6903 20.0994 17.282 19.6471 17.7844C19.136 18.3521 18.4331 18.7579 17.0274 19.5695C17.0154 19.5764 17.0032 19.5834 16.9912 19.5903L14.3017 21.1431C12.896 21.9547 12.1931 22.3605 11.4459 22.5194C11.4151 22.5259 11.3844 22.5321 11.3536 22.538V12.7441C11.3536 11.4644 10.6546 10.2869 9.5311 9.6741L1.34145 5.20693Z" fill="black"/>
<path d="M1.34145 5.20693C1.24012 5.15166 1.13386 5.11423 1.02627 5.09356C1.09416 5.0069 1.16509 4.92246 1.23897 4.8404C1.75015 4.27267 2.45303 3.86686 3.85877 3.05525L6.5843 1.48166C7.99 0.670047 8.6929 0.264238 9.4402 0.105398C10.1014 -0.0351325 10.7847 -0.0351325 11.4459 0.105398C12.1931 0.264238 12.896 0.670047 14.3017 1.48166L16.9951 3.03669C17.0059 3.04286 17.0166 3.04905 17.0273 3.05526C18.4331 3.86687 19.136 4.27268 19.6471 4.84041C20.0994 5.34274 20.4411 5.93452 20.65 6.5774C20.8861 7.304 20.8861 8.1156 20.8861 9.7388V12.886C20.8861 14.5092 20.8861 15.3208 20.65 16.0474C20.4411 16.6903 20.0994 17.282 19.6471 17.7844C19.136 18.3521 18.4331 18.7579 17.0274 19.5695C17.0154 19.5764 17.0032 19.5834 16.9912 19.5903L14.3017 21.1431C12.896 21.9547 12.1931 22.3605 11.4459 22.5194C11.4151 22.5259 11.3844 22.5321 11.3536 22.538V12.7441C11.3536 11.4644 10.6546 10.2869 9.5311 9.6741L1.34145 5.20693Z" fill="#0443F2"/>
<path d="M38.529 18.6242C38.237 18.6242 38 18.3875 38 18.0956V5.52856C38 5.23664 38.237 5 38.529 5H40.038C40.223 5 40.394 5.09652 40.49 5.25455L44.275 11.4977C44.378 11.6674 44.624 11.6674 44.727 11.4977L48.512 5.25455C48.608 5.09652 48.779 5 48.964 5H50.473C50.765 5 51.002 5.23665 51.002 5.52856V18.0956C51.002 18.3875 50.765 18.6242 50.473 18.6242H49.701C49.409 18.6242 49.172 18.3875 49.172 18.0956V8.39209C49.172 8.12509 48.821 8.02649 48.682 8.25429L45.356 13.7C45.26 13.8572 45.089 13.953 44.905 13.953H44.097C43.913 13.953 43.742 13.8572 43.646 13.7L40.32 8.25429C40.18 8.02649 39.83 8.12509 39.83 8.39209V18.0956C39.83 18.3875 39.593 18.6242 39.301 18.6242H38.529Z" fill="black"/>
<path d="M38.529 18.6242C38.237 18.6242 38 18.3875 38 18.0956V5.52856C38 5.23664 38.237 5 38.529 5H40.038C40.223 5 40.394 5.09652 40.49 5.25455L44.275 11.4977C44.378 11.6674 44.624 11.6674 44.727 11.4977L48.512 5.25455C48.608 5.09652 48.779 5 48.964 5H50.473C50.765 5 51.002 5.23665 51.002 5.52856V18.0956C51.002 18.3875 50.765 18.6242 50.473 18.6242H49.701C49.409 18.6242 49.172 18.3875 49.172 18.0956V8.39209C49.172 8.12509 48.821 8.02649 48.682 8.25429L45.356 13.7C45.26 13.8572 45.089 13.953 44.905 13.953H44.097C43.913 13.953 43.742 13.8572 43.646 13.7L40.32 8.25429C40.18 8.02649 39.83 8.12509 39.83 8.39209V18.0956C39.83 18.3875 39.593 18.6242 39.301 18.6242H38.529Z" fill="#0443F2"/>
<path d="M62.733 16.6907C62.96 16.8674 63.006 17.1957 62.811 17.407C61.892 18.401 60.561 19.0134 58.938 19.0134C55.629 19.0134 53.586 16.5805 53.586 13.7195C53.586 10.7416 55.493 8.42549 58.529 8.42549C61.196 8.42549 62.928 10.294 62.928 12.7074C62.928 12.9212 62.91 13.129 62.885 13.3182C62.851 13.5652 62.633 13.7389 62.384 13.7389H55.55C55.401 13.7389 55.281 13.8619 55.292 14.01C55.455 16.2025 56.918 17.5148 58.938 17.5148C59.993 17.5148 60.912 17.1089 61.561 16.4663C61.773 16.2568 62.11 16.206 62.345 16.3889L62.733 16.6907ZM58.49 9.82689C56.978 9.82689 55.892 10.6626 55.472 12.1584C55.427 12.3197 55.553 12.4738 55.72 12.4738H60.998C61.149 12.4738 61.27 12.3486 61.251 12.1996C61.085 10.8836 60.111 9.82689 58.49 9.82689Z" fill="black"/>
<path d="M62.733 16.6907C62.96 16.8674 63.006 17.1957 62.811 17.407C61.892 18.401 60.561 19.0134 58.938 19.0134C55.629 19.0134 53.586 16.5805 53.586 13.7195C53.586 10.7416 55.493 8.42549 58.529 8.42549C61.196 8.42549 62.928 10.294 62.928 12.7074C62.928 12.9212 62.91 13.129 62.885 13.3182C62.851 13.5652 62.633 13.7389 62.384 13.7389H55.55C55.401 13.7389 55.281 13.8619 55.292 14.01C55.455 16.2025 56.918 17.5148 58.938 17.5148C59.993 17.5148 60.912 17.1089 61.561 16.4663C61.773 16.2568 62.11 16.206 62.345 16.3889L62.733 16.6907ZM58.49 9.82689C56.978 9.82689 55.892 10.6626 55.472 12.1584C55.427 12.3197 55.553 12.4738 55.72 12.4738H60.998C61.149 12.4738 61.27 12.3486 61.251 12.1996C61.085 10.8836 60.111 9.82689 58.49 9.82689Z" fill="#0443F2"/>
<path d="M73.615 16.6907C73.842 16.8674 73.888 17.1957 73.693 17.407C72.774 18.401 71.443 19.0134 69.82 19.0134C66.511 19.0134 64.468 16.5805 64.468 13.7195C64.468 10.7416 66.375 8.42549 69.411 8.42549C72.078 8.42549 73.81 10.294 73.81 12.7074C73.81 12.9212 73.792 13.129 73.767 13.3182C73.733 13.5652 73.515 13.7389 73.266 13.7389H66.432C66.283 13.7389 66.163 13.8619 66.174 14.01C66.337 16.2025 67.8 17.5148 69.82 17.5148C70.875 17.5148 71.794 17.1089 72.443 16.4663C72.655 16.2568 72.992 16.2061 73.227 16.3889L73.615 16.6907ZM69.372 9.82689C67.86 9.82689 66.774 10.6626 66.354 12.1584C66.309 12.3197 66.435 12.4738 66.602 12.4738H71.88C72.03 12.4738 72.151 12.3486 72.133 12.1996C71.967 10.8836 70.993 9.82689 69.372 9.82689Z" fill="black"/>
<path d="M73.615 16.6907C73.842 16.8674 73.888 17.1957 73.693 17.407C72.774 18.401 71.443 19.0134 69.82 19.0134C66.511 19.0134 64.468 16.5805 64.468 13.7195C64.468 10.7416 66.375 8.42549 69.411 8.42549C72.078 8.42549 73.81 10.294 73.81 12.7074C73.81 12.9212 73.792 13.129 73.767 13.3182C73.733 13.5652 73.515 13.7389 73.266 13.7389H66.432C66.283 13.7389 66.163 13.8619 66.174 14.01C66.337 16.2025 67.8 17.5148 69.82 17.5148C70.875 17.5148 71.794 17.1089 72.443 16.4663C72.655 16.2568 72.992 16.2061 73.227 16.3889L73.615 16.6907ZM69.372 9.82689C67.86 9.82689 66.774 10.6626 66.354 12.1584C66.309 12.3197 66.435 12.4738 66.602 12.4738H71.88C72.03 12.4738 72.151 12.3486 72.133 12.1996C71.967 10.8836 70.993 9.82689 69.372 9.82689Z" fill="#0443F2"/>
<path d="M76.732 15.3349V10.842C76.732 10.5501 76.495 10.3134 76.203 10.3134H75.411C75.119 10.3134 74.883 10.0768 74.883 9.78489V9.34329C74.883 9.05139 75.119 8.81479 75.411 8.81479H76.203C76.495 8.81479 76.732 8.57809 76.732 8.28619V6.89099C76.732 6.59906 76.968 6.36242 77.26 6.36242H77.877C78.169 6.36242 78.406 6.59906 78.406 6.89099V8.28619C78.406 8.57809 78.642 8.81479 78.934 8.81479H81.283C81.575 8.81479 81.812 9.05139 81.812 9.34329V9.78489C81.812 10.0768 81.575 10.3134 81.283 10.3134H78.934C78.642 10.3134 78.406 10.5501 78.406 10.842V15.3349C78.406 16.8725 79.184 17.3007 80.371 17.3007C80.811 17.3007 81.159 17.2643 81.453 17.1914C81.637 17.1461 81.831 17.2761 81.831 17.4652V18.1939C81.831 18.4073 81.704 18.6037 81.499 18.6624C81.113 18.7726 80.677 18.8188 80.138 18.8188C77.958 18.8188 76.732 17.7289 76.732 15.3349Z" fill="black"/>
<path d="M76.732 15.3349V10.842C76.732 10.5501 76.495 10.3134 76.203 10.3134H75.411C75.119 10.3134 74.883 10.0768 74.883 9.78489V9.34329C74.883 9.05139 75.119 8.81479 75.411 8.81479H76.203C76.495 8.81479 76.732 8.57809 76.732 8.28619V6.89099C76.732 6.59906 76.968 6.36242 77.26 6.36242H77.877C78.169 6.36242 78.406 6.59906 78.406 6.89099V8.28619C78.406 8.57809 78.642 8.81479 78.934 8.81479H81.283C81.575 8.81479 81.812 9.05139 81.812 9.34329V9.78489C81.812 10.0768 81.575 10.3134 81.283 10.3134H78.934C78.642 10.3134 78.406 10.5501 78.406 10.842V15.3349C78.406 16.8725 79.184 17.3007 80.371 17.3007C80.811 17.3007 81.159 17.2643 81.453 17.1914C81.637 17.1461 81.831 17.2761 81.831 17.4652V18.1939C81.831 18.4073 81.704 18.6037 81.499 18.6624C81.113 18.7726 80.677 18.8188 80.138 18.8188C77.958 18.8188 76.732 17.7289 76.732 15.3349Z" fill="#0443F2"/>
</svg>
