<svg width="126" height="32" viewBox="0 0 126 32" fill="none" xmlns="http://www.w3.org/2000/svg">
<path fill-rule="evenodd" clip-rule="evenodd" d="M28 0C30.2091 0 32 1.79086 32 4V10.7502L36.5239 5.802C37.7556 4.45495 40 5.32634 40 7.15161V24.8486C40 26.6739 37.7556 27.5453 36.5239 26.1982L32 21.2502V28C32 30.2091 30.2091 32 28 32H4C1.79086 32 0 30.2091 0 28V4C0 1.79086 1.79086 0 4 0H28ZM16 22C14.8954 22 14 22.8954 14 24C14 25.1046 14.8954 26 16 26C17.1046 26 18 25.1046 18 24C18 22.8954 17.1046 22 16 22ZM24 22C22.8954 22 22 22.8954 22 24C22 25.1046 22.8954 26 24 26C25.1046 26 26 25.1046 26 24C26 22.8954 25.1046 22 24 22Z" fill="url(#paint0_linear_862_7)"/>
<path d="M52.08 27C52.08 23.416 52.08 19.7893 52.08 16.12C52.08 12.4507 52.08 8.824 52.08 5.24C53.4027 5.24 54.736 5.24 56.08 5.24C57.424 5.24 58.7573 5.24 60.08 5.24C60.6987 7.416 61.3067 9.624 61.904 11.864C62.5227 14.0827 63.1307 16.28 63.728 18.456C64.3253 16.28 64.9227 14.0827 65.52 11.864C66.1387 9.624 66.7467 7.416 67.344 5.24C68.6667 5.24 69.9893 5.24 71.312 5.24C72.6347 5.24 73.9467 5.24 75.248 5.24C75.2693 8.824 75.2907 12.4507 75.312 16.12C75.3333 19.7893 75.3547 23.416 75.376 27C74.48 27 73.5733 27 72.656 27C71.76 27 70.864 27 69.968 27C69.968 24.568 69.968 22.1147 69.968 19.64C69.968 17.144 69.968 14.68 69.968 12.248C69.328 14.68 68.6773 17.144 68.016 19.64C67.3547 22.1147 66.704 24.568 66.064 27C65.2747 27 64.464 27 63.632 27C62.8213 27 62.0107 27 61.2 27C60.56 24.6107 59.92 22.2 59.28 19.768C58.64 17.3147 58 14.8933 57.36 12.504C57.36 14.8933 57.36 17.3147 57.36 19.768C57.36 22.2 57.36 24.6107 57.36 27C56.5067 27 55.632 27 54.736 27C53.84 27 52.9547 27 52.08 27Z" fill="#0443F2"/>
<path d="M93.4688 26.232C91.9968 26.8507 90.5354 27.2347 89.0847 27.384C87.6341 27.5333 86.2581 27.448 84.9567 27.128C83.6767 26.8293 82.5354 26.3067 81.5328 25.56C80.5301 24.8133 79.7407 23.864 79.1647 22.712C78.6101 21.56 78.3327 20.2267 78.3327 18.712C78.3327 17.4533 78.5354 16.3013 78.9408 15.256C79.3674 14.1893 79.9647 13.2613 80.7327 12.472C81.5008 11.6613 82.4074 11.0427 83.4528 10.616C84.4981 10.168 85.6394 9.944 86.8767 9.944C87.9861 9.944 88.9888 10.1253 89.8848 10.488C90.7808 10.8507 91.5594 11.3627 92.2207 12.024C92.8821 12.664 93.4154 13.432 93.8208 14.328C94.2261 15.224 94.4821 16.2053 94.5888 17.272C94.6954 18.3387 94.6314 19.4693 94.3968 20.664C92.6474 20.664 90.8874 20.664 89.1168 20.664C87.3461 20.664 85.5861 20.664 83.8368 20.664C84.2421 21.4747 84.9141 22.0507 85.8528 22.392C86.8128 22.7333 87.9434 22.84 89.2448 22.712C90.5674 22.584 91.9754 22.2427 93.4688 21.688C93.4688 22.4347 93.4688 23.192 93.4688 23.96C93.4688 24.728 93.4688 25.4853 93.4688 26.232ZM86.7487 14.68C86.1301 14.68 85.5541 14.8507 85.0208 15.192C84.5088 15.5333 84.1141 16.056 83.8368 16.76C84.7968 16.76 85.7568 16.76 86.7168 16.76C87.6981 16.76 88.6688 16.76 89.6288 16.76C89.3728 16.0347 88.9888 15.512 88.4768 15.192C87.9861 14.8507 87.4101 14.68 86.7487 14.68Z" fill="#0443F2"/>
<path d="M111.625 26.232C110.153 26.8507 108.692 27.2347 107.241 27.384C105.79 27.5333 104.414 27.448 103.113 27.128C101.833 26.8293 100.692 26.3067 99.689 25.56C98.6863 24.8133 97.897 23.864 97.321 22.712C96.7663 21.56 96.489 20.2267 96.489 18.712C96.489 17.4533 96.6917 16.3013 97.097 15.256C97.5237 14.1893 98.121 13.2613 98.889 12.472C99.657 11.6613 100.564 11.0427 101.609 10.616C102.654 10.168 103.796 9.944 105.033 9.944C106.142 9.944 107.145 10.1253 108.041 10.488C108.937 10.8507 109.716 11.3627 110.377 12.024C111.038 12.664 111.572 13.432 111.977 14.328C112.382 15.224 112.638 16.2053 112.745 17.272C112.852 18.3387 112.788 19.4693 112.553 20.664C110.804 20.664 109.044 20.664 107.273 20.664C105.502 20.664 103.742 20.664 101.993 20.664C102.398 21.4747 103.07 22.0507 104.009 22.392C104.969 22.7333 106.1 22.84 107.401 22.712C108.724 22.584 110.132 22.2427 111.625 21.688C111.625 22.4347 111.625 23.192 111.625 23.96C111.625 24.728 111.625 25.4853 111.625 26.232ZM104.905 14.68C104.286 14.68 103.71 14.8507 103.177 15.192C102.665 15.5333 102.27 16.056 101.993 16.76C102.953 16.76 103.913 16.76 104.873 16.76C105.854 16.76 106.825 16.76 107.785 16.76C107.529 16.0347 107.145 15.512 106.633 15.192C106.142 14.8507 105.566 14.68 104.905 14.68Z" fill="#0443F2"/>
<path d="M117.113 27C117.113 25.0373 117.113 23.064 117.113 21.08C117.113 19.096 117.113 17.1333 117.113 15.192C116.686 15.192 116.249 15.192 115.801 15.192C115.374 15.192 114.948 15.192 114.521 15.192C114.521 14.4027 114.521 13.6133 114.521 12.824C114.521 12.0347 114.521 11.2453 114.521 10.456C114.948 10.456 115.374 10.456 115.801 10.456C116.249 10.456 116.686 10.456 117.113 10.456C117.113 9.70933 117.113 8.97333 117.113 8.248C117.113 7.50133 117.113 6.76533 117.113 6.04C117.988 6.04 118.873 6.04 119.769 6.04C120.665 6.04 121.54 6.04 122.393 6.04C122.393 6.76533 122.393 7.50133 122.393 8.248C122.393 8.97333 122.393 9.70933 122.393 10.456C122.884 10.456 123.385 10.456 123.897 10.456C124.409 10.456 124.91 10.456 125.401 10.456C125.401 11.2453 125.401 12.0347 125.401 12.824C125.401 13.6133 125.401 14.4027 125.401 15.192C124.91 15.192 124.409 15.192 123.897 15.192C123.385 15.192 122.884 15.192 122.393 15.192C122.393 17.1333 122.393 19.096 122.393 21.08C122.393 23.064 122.393 25.0373 122.393 27C121.54 27 120.665 27 119.769 27C118.873 27 117.988 27 117.113 27Z" fill="#0443F2"/>
<defs>
<linearGradient id="paint0_linear_862_7" x1="0" y1="0" x2="15.5481" y2="59.9774" gradientUnits="userSpaceOnUse">
<stop stop-color="#00B172"/>
<stop offset="1" stop-color="#059A6B"/>
</linearGradient>
</defs>
</svg>
