<svg width="650" height="456" viewBox="0 0 650 456" fill="none" xmlns="http://www.w3.org/2000/svg">
<path d="M325 0C412.261 0 483 70.739 483 158C483 245.261 412.261 316 325 316C292.368 316 262.047 306.106 236.871 289.156C237.948 285.578 239.109 281.84 240.345 277.973C246.929 257.362 255.578 233.295 264.987 210.375C274.407 187.432 284.544 165.747 294.096 149.847C298.879 141.884 303.437 135.505 307.6 131.159C311.911 126.657 315.181 124.989 317.376 124.989C319.381 124.989 321.237 125.905 323.109 128.134C325.044 130.437 326.797 133.933 328.387 138.5C331.564 147.63 333.725 159.922 335.899 172.594C338.043 185.087 340.201 197.963 343.411 207.695C345.015 212.557 346.968 216.924 349.512 220.129C352.109 223.402 355.545 225.712 359.936 225.712C368.933 225.712 374.624 218.363 378.406 209.783C382.283 200.989 384.86 189.382 386.975 177.95C389.125 166.322 390.785 154.973 392.84 145.965C393.862 141.484 394.933 137.822 396.114 135.174C397.299 132.52 398.285 131.599 398.782 131.35L398.875 131.308C400.114 130.835 400.92 130.932 401.826 131.602C403.028 132.489 404.631 134.588 406.398 139.045C409.902 147.881 413.339 164.087 416.754 191.733L416.769 191.856L416.793 191.979C417.155 193.788 417.814 195.418 418.834 196.652C419.854 197.886 421.491 198.972 423.539 198.767C425.581 198.562 426.967 197.181 427.723 195.787C428.481 194.387 428.811 192.678 428.811 190.86V190.808L428.809 190.754C428.184 171.184 426.205 146.414 421.346 127.079C418.927 117.454 415.715 108.84 411.367 102.889C406.939 96.8265 400.907 93.0577 393.271 94.6729L392.658 94.8154C386.4 96.4056 382.59 101.551 380.076 107.189C377.47 113.034 375.879 120.251 374.473 126.831C373.019 133.634 371.777 139.653 369.939 143.863C369.03 145.947 368.116 147.233 367.26 147.93C366.541 148.514 365.774 148.773 364.621 148.584L364.526 148.564C364.027 148.44 363.11 147.885 362.001 145.606C360.86 143.262 359.894 139.838 359.023 135.465C357.261 126.609 356.154 115.461 354.263 103.627C352.421 92.1024 349.863 80.2288 345.195 71.1816C340.467 62.0168 333.228 55.1836 322.06 55.1836C316.299 55.1837 309.51 58.2549 302.329 62.9707C295.019 67.7714 286.791 74.6264 278.036 82.9297C260.515 99.547 240.584 122.249 221.234 146.721C205.067 167.168 189.264 188.901 175.564 209.438C170.015 193.313 167 176.009 167 158C167 70.739 237.739 0 325 0Z" fill="white"/>
<path d="M325 0C412.261 0 483 70.739 483 158C483 245.261 412.261 316 325 316C292.368 316 262.047 306.106 236.871 289.156C237.948 285.578 239.109 281.84 240.345 277.973C246.929 257.362 255.578 233.295 264.987 210.375C274.407 187.432 284.544 165.747 294.096 149.847C298.879 141.884 303.437 135.505 307.6 131.159C311.911 126.657 315.181 124.989 317.376 124.989C319.381 124.989 321.237 125.905 323.109 128.134C325.044 130.437 326.797 133.933 328.387 138.5C331.564 147.63 333.725 159.922 335.899 172.594C338.043 185.087 340.201 197.963 343.411 207.695C345.015 212.557 346.968 216.924 349.512 220.129C352.109 223.402 355.545 225.712 359.936 225.712C368.933 225.712 374.624 218.363 378.406 209.783C382.283 200.989 384.86 189.382 386.975 177.95C389.125 166.322 390.785 154.973 392.84 145.965C393.862 141.484 394.933 137.822 396.114 135.174C397.299 132.52 398.285 131.599 398.782 131.35L398.875 131.308C400.114 130.835 400.92 130.932 401.826 131.602C403.028 132.489 404.631 134.588 406.398 139.045C409.902 147.881 413.339 164.087 416.754 191.733L416.769 191.856L416.793 191.979C417.155 193.788 417.814 195.418 418.834 196.652C419.854 197.886 421.491 198.972 423.539 198.767C425.581 198.562 426.967 197.181 427.723 195.787C428.481 194.387 428.811 192.678 428.811 190.86V190.808L428.809 190.754C428.184 171.184 426.205 146.414 421.346 127.079C418.927 117.454 415.715 108.84 411.367 102.889C406.939 96.8265 400.907 93.0577 393.271 94.6729L392.658 94.8154C386.4 96.4056 382.59 101.551 380.076 107.189C377.47 113.034 375.879 120.251 374.473 126.831C373.019 133.634 371.777 139.653 369.939 143.863C369.03 145.947 368.116 147.233 367.26 147.93C366.541 148.514 365.774 148.773 364.621 148.584L364.526 148.564C364.027 148.44 363.11 147.885 362.001 145.606C360.86 143.262 359.894 139.838 359.023 135.465C357.261 126.609 356.154 115.461 354.263 103.627C352.421 92.1024 349.863 80.2288 345.195 71.1816C340.467 62.0168 333.228 55.1836 322.06 55.1836C316.299 55.1837 309.51 58.2549 302.329 62.9707C295.019 67.7714 286.791 74.6264 278.036 82.9297C260.515 99.547 240.584 122.249 221.234 146.721C205.067 167.168 189.264 188.901 175.564 209.438C170.015 193.313 167 176.009 167 158C167 70.739 237.739 0 325 0Z" fill="#0443F2"/>
<path d="M6.6 453C6.6 442.76 6.6 432.44 6.6 422.04C6.6 411.56 6.6 401.2 6.6 390.96C9.88 390.96 13.2 390.96 16.56 390.96C19.92 390.96 23.2 390.96 26.4 390.96C26.4 391.52 26.4 392.04 26.4 392.52C26.4 393 26.4 393.52 26.4 394.08C28.48 392.56 30.8 391.4 33.36 390.6C35.92 389.72 38.56 389.28 41.28 389.28C44.24 389.28 46.96 389.8 49.44 390.84C51.92 391.8 54.04 393.24 55.8 395.16C58.36 393.32 61.24 391.88 64.44 390.84C67.72 389.8 71.08 389.28 74.52 389.28C79.4 389.28 83.6 390.28 87.12 392.28C90.72 394.28 93.48 397.12 95.4 400.8C97.4 404.48 98.4 408.92 98.4 414.12C98.4 420.52 98.4 427 98.4 433.56C98.4 440.12 98.4 446.6 98.4 453C95.2 453 91.92 453 88.56 453C85.2 453 81.88 453 78.6 453C78.6 447 78.6 440.92 78.6 434.76C78.6 428.6 78.6 422.52 78.6 416.52C78.6 413.8 77.96 411.6 76.68 409.92C75.48 408.16 73.52 407.28 70.8 407.28C68.16 407.28 66.08 408.12 64.56 409.8C63.12 411.4 62.4 413.64 62.4 416.52C62.4 422.52 62.4 428.6 62.4 434.76C62.4 440.92 62.4 447 62.4 453C59.2 453 55.92 453 52.56 453C49.2 453 45.88 453 42.6 453C42.6 447 42.6 440.92 42.6 434.76C42.6 428.6 42.6 422.52 42.6 416.52C42.6 413.8 41.96 411.6 40.68 409.92C39.48 408.16 37.52 407.28 34.8 407.28C32.16 407.28 30.08 408.12 28.56 409.8C27.12 411.4 26.4 413.64 26.4 416.52C26.4 422.52 26.4 428.6 26.4 434.76C26.4 440.92 26.4 447 26.4 453C23.2 453 19.92 453 16.56 453C13.2 453 9.88 453 6.6 453ZM140.063 454.92C135.423 454.92 131.103 454.12 127.103 452.52C123.103 450.84 119.623 448.52 116.663 445.56C113.703 442.52 111.383 439 109.703 435C108.103 431 107.303 426.64 107.303 421.92C107.303 417.2 108.103 412.84 109.703 408.84C111.383 404.84 113.703 401.36 116.663 398.4C119.623 395.44 123.103 393.16 127.103 391.56C131.103 389.88 135.423 389.04 140.063 389.04C144.783 389.04 149.103 389.88 153.023 391.56C157.023 393.16 160.503 395.44 163.463 398.4C166.423 401.36 168.703 404.84 170.303 408.84C171.983 412.84 172.823 417.2 172.823 421.92C172.823 426.64 171.983 431 170.303 435C168.703 439 166.423 442.52 163.463 445.56C160.503 448.52 157.023 450.84 153.023 452.52C149.103 454.12 144.783 454.92 140.063 454.92ZM140.063 437.04C143.983 437.04 147.103 435.64 149.423 432.84C151.823 429.96 153.023 426.32 153.023 421.92C153.023 417.44 151.823 413.84 149.423 411.12C147.103 408.32 143.983 406.92 140.063 406.92C136.143 406.92 132.983 408.32 130.583 411.12C128.263 413.84 127.103 417.44 127.103 421.92C127.103 426.32 128.263 429.96 130.583 432.84C132.983 435.64 136.143 437.04 140.063 437.04ZM230.016 433.8C230.016 438.76 228.616 442.84 225.816 446.04C223.096 449.16 219.416 451.44 214.776 452.88C210.136 454.32 204.936 454.92 199.176 454.68C193.496 454.52 187.696 453.6 181.776 451.92C181.776 448.88 181.776 445.76 181.776 442.56C181.776 439.36 181.776 436.24 181.776 433.2C185.136 434.72 188.496 435.92 191.856 436.8C195.216 437.6 198.256 438.08 200.976 438.24C203.696 438.4 205.896 438.2 207.576 437.64C209.256 437 210.096 435.96 210.096 434.52C210.096 433.4 209.376 432.52 207.936 431.88C206.576 431.24 204.776 430.68 202.536 430.2C200.296 429.64 197.896 429 195.336 428.28C192.856 427.48 190.496 426.4 188.256 425.04C186.016 423.6 184.176 421.72 182.736 419.4C181.376 417 180.696 413.92 180.696 410.16C180.696 405.68 181.976 401.88 184.536 398.76C187.176 395.56 190.696 393.16 195.096 391.56C199.496 389.88 204.416 389.04 209.856 389.04C215.296 389.04 220.856 389.96 226.536 391.8C226.536 394.84 226.536 397.96 226.536 401.16C226.536 404.36 226.536 407.48 226.536 410.52C222.056 408.36 217.856 406.92 213.936 406.2C210.016 405.48 206.856 405.4 204.456 405.96C202.056 406.44 200.856 407.52 200.856 409.2C200.856 410.32 201.536 411.2 202.896 411.84C204.336 412.4 206.136 412.92 208.296 413.4C210.536 413.88 212.896 414.52 215.376 415.32C217.936 416.12 220.296 417.24 222.456 418.68C224.696 420.04 226.496 421.96 227.856 424.44C229.296 426.84 230.016 429.96 230.016 433.8ZM280.969 453C280.969 452.36 280.969 451.76 280.969 451.2C280.969 450.56 280.969 449.96 280.969 449.4C278.969 451.08 276.689 452.36 274.129 453.24C271.649 454.2 268.969 454.68 266.089 454.68C262.009 454.68 258.169 453.92 254.569 452.4C250.969 450.8 247.769 448.56 244.969 445.68C242.249 442.72 240.089 439.24 238.489 435.24C236.969 431.24 236.209 426.8 236.209 421.92C236.209 416.96 236.969 412.48 238.489 408.48C240.089 404.48 242.249 401.08 244.969 398.28C247.769 395.4 250.969 393.2 254.569 391.68C258.169 390.08 261.969 389.28 265.969 389.28C268.849 389.28 271.569 389.76 274.129 390.72C276.689 391.6 278.969 392.84 280.969 394.44C280.969 393.8 280.969 393.2 280.969 392.64C280.969 392.08 280.969 391.52 280.969 390.96C284.249 390.96 287.569 390.96 290.929 390.96C294.289 390.96 297.569 390.96 300.769 390.96C300.769 401.2 300.769 411.56 300.769 422.04C300.769 432.44 300.769 442.76 300.769 453C297.569 453 294.289 453 290.929 453C287.569 453 284.249 453 280.969 453ZM268.729 437.16C272.569 437.16 275.649 435.76 277.969 432.96C280.289 430.16 281.449 426.48 281.449 421.92C281.449 417.36 280.289 413.72 277.969 411C275.649 408.2 272.569 406.8 268.729 406.8C264.809 406.8 261.689 408.16 259.369 410.88C257.129 413.6 256.009 417.28 256.009 421.92C256.009 426.56 257.129 430.28 259.369 433.08C261.689 435.8 264.809 437.16 268.729 437.16ZM324.903 454.92C322.583 454.92 320.423 454.36 318.423 453.24C316.503 452.12 314.983 450.6 313.863 448.68C312.743 446.76 312.183 444.68 312.183 442.44C312.183 440.2 312.743 438.16 313.863 436.32C314.983 434.4 316.503 432.88 318.423 431.76C320.423 430.64 322.583 430.08 324.903 430.08C327.223 430.08 329.303 430.64 331.143 431.76C333.063 432.88 334.583 434.4 335.703 436.32C336.903 438.16 337.503 440.2 337.503 442.44C337.503 444.68 336.903 446.76 335.703 448.68C334.583 450.6 333.063 452.12 331.143 453.24C329.303 454.36 327.223 454.92 324.903 454.92ZM343.201 421.92C343.201 415.84 344.441 410.52 346.921 405.96C349.401 401.32 352.841 397.6 357.241 394.8C361.641 392 366.761 390.32 372.601 389.76C378.441 389.12 384.681 389.8 391.321 391.8C391.321 394.84 391.321 397.92 391.321 401.04C391.321 404.16 391.321 407.24 391.321 410.28C386.681 408.04 382.241 407 378.001 407.16C373.761 407.32 370.281 408.64 367.561 411.12C364.841 413.52 363.481 417.12 363.481 421.92C363.481 426.72 364.841 430.36 367.561 432.84C370.281 435.24 373.761 436.52 378.001 436.68C382.241 436.76 386.681 435.72 391.321 433.56C391.321 436.6 391.321 439.68 391.321 442.8C391.321 445.92 391.321 449 391.321 452.04C384.681 454.04 378.441 454.72 372.601 454.08C366.761 453.52 361.641 451.84 357.241 449.04C352.841 446.24 349.401 442.56 346.921 438C344.441 433.36 343.201 428 343.201 421.92ZM404.231 453C404.231 438.52 404.231 423.92 404.231 409.2C404.231 394.48 404.231 379.88 404.231 365.4C407.511 365.4 410.831 365.4 414.191 365.4C417.551 365.4 420.831 365.4 424.031 365.4C424.031 379.88 424.031 394.48 424.031 409.2C424.031 423.92 424.031 438.52 424.031 453C420.831 453 417.551 453 414.191 453C410.831 453 407.511 453 404.231 453ZM467.25 454.92C462.61 454.92 458.29 454.12 454.29 452.52C450.29 450.84 446.81 448.52 443.85 445.56C440.89 442.52 438.57 439 436.89 435C435.29 431 434.49 426.64 434.49 421.92C434.49 417.2 435.29 412.84 436.89 408.84C438.57 404.84 440.89 401.36 443.85 398.4C446.81 395.44 450.29 393.16 454.29 391.56C458.29 389.88 462.61 389.04 467.25 389.04C471.97 389.04 476.29 389.88 480.21 391.56C484.21 393.16 487.69 395.44 490.65 398.4C493.61 401.36 495.89 404.84 497.49 408.84C499.17 412.84 500.01 417.2 500.01 421.92C500.01 426.64 499.17 431 497.49 435C495.89 439 493.61 442.52 490.65 445.56C487.69 448.52 484.21 450.84 480.21 452.52C476.29 454.12 471.97 454.92 467.25 454.92ZM467.25 437.04C471.17 437.04 474.29 435.64 476.61 432.84C479.01 429.96 480.21 426.32 480.21 421.92C480.21 417.44 479.01 413.84 476.61 411.12C474.29 408.32 471.17 406.92 467.25 406.92C463.33 406.92 460.17 408.32 457.77 411.12C455.45 413.84 454.29 417.44 454.29 421.92C454.29 426.32 455.45 429.96 457.77 432.84C460.17 435.64 463.33 437.04 467.25 437.04ZM567.763 390.96C567.763 401.2 567.763 411.56 567.763 422.04C567.763 432.44 567.763 442.76 567.763 453C564.563 453 561.283 453 557.923 453C554.563 453 551.243 453 547.963 453C547.963 452.44 547.963 451.92 547.963 451.44C547.963 450.96 547.963 450.44 547.963 449.88C545.803 451.4 543.363 452.56 540.643 453.36C538.003 454.24 535.123 454.68 532.003 454.68C527.443 454.68 523.403 453.64 519.883 451.56C516.443 449.48 513.723 446.48 511.723 442.56C509.803 438.64 508.843 434 508.843 428.64C508.843 422.4 508.843 416.12 508.843 409.8C508.843 403.48 508.843 397.2 508.843 390.96C512.123 390.96 515.443 390.96 518.803 390.96C522.163 390.96 525.443 390.96 528.643 390.96C528.643 396.72 528.643 402.56 528.643 408.48C528.643 414.4 528.643 420.24 528.643 426C528.643 429.2 529.363 431.8 530.803 433.8C532.323 435.72 534.683 436.68 537.883 436.68C541.083 436.68 543.563 435.76 545.323 433.92C547.083 432.08 547.963 429.44 547.963 426C547.963 420.24 547.963 414.4 547.963 408.48C547.963 402.56 547.963 396.72 547.963 390.96C551.243 390.96 554.563 390.96 557.923 390.96C561.283 390.96 564.563 390.96 567.763 390.96ZM622.336 453C622.336 452.36 622.336 451.76 622.336 451.2C622.336 450.56 622.336 449.96 622.336 449.4C620.336 451.08 618.056 452.36 615.496 453.24C613.016 454.2 610.336 454.68 607.456 454.68C603.376 454.68 599.536 453.88 595.936 452.28C592.336 450.68 589.136 448.44 586.336 445.56C583.616 442.6 581.456 439.12 579.856 435.12C578.336 431.12 577.576 426.72 577.576 421.92C577.576 417.04 578.336 412.6 579.856 408.6C581.456 404.6 583.616 401.16 586.336 398.28C589.136 395.4 592.336 393.2 595.936 391.68C599.536 390.08 603.336 389.28 607.336 389.28C610.216 389.28 612.936 389.76 615.496 390.72C618.056 391.6 620.336 392.84 622.336 394.44C622.336 389.64 622.336 384.8 622.336 379.92C622.336 375.04 622.336 370.2 622.336 365.4C625.616 365.4 628.936 365.4 632.296 365.4C635.656 365.4 638.936 365.4 642.136 365.4C642.136 379.88 642.136 394.48 642.136 409.2C642.136 423.92 642.136 438.52 642.136 453C638.936 453 635.656 453 632.296 453C628.936 453 625.616 453 622.336 453ZM610.096 437.16C613.936 437.16 617.016 435.76 619.336 432.96C621.656 430.16 622.816 426.48 622.816 421.92C622.816 417.36 621.656 413.72 619.336 411C617.016 408.2 613.936 406.8 610.096 406.8C606.176 406.8 603.056 408.16 600.736 410.88C598.496 413.6 597.376 417.28 597.376 421.92C597.376 426.56 598.496 430.28 600.736 433.08C603.056 435.8 606.176 437.16 610.096 437.16Z" fill="#0443F2"/>
</svg>
