<svg width="622" height="105" viewBox="0 0 622 105" fill="none" xmlns="http://www.w3.org/2000/svg">
<path d="M52.5 0C81.4949 0 105 23.5051 105 52.5C105 81.4949 81.4949 105 52.5 105C41.8667 105 31.9722 101.838 23.7041 96.4043C24.0744 95.1702 24.4725 93.8757 24.9014 92.5332C27.0848 85.6984 29.9537 77.7152 33.0742 70.1143C36.1997 62.5014 39.5565 55.3252 42.709 50.0771C44.2891 47.4468 45.7785 45.3668 47.1201 43.9658C48.5364 42.4871 49.482 42.0869 49.9668 42.0869C50.4249 42.087 50.8981 42.2812 51.4463 42.9336C52.0256 43.6231 52.5806 44.7116 53.0996 46.2031C54.1369 49.1841 54.8485 53.2183 55.5732 57.4424C56.2827 61.5769 57.0064 65.9043 58.0889 69.1865C58.6294 70.8253 59.3038 72.3485 60.209 73.4893C61.1413 74.664 62.4285 75.5556 64.1084 75.5557C67.4594 75.5555 69.485 72.811 70.7549 69.9307C72.0719 66.9431 72.9381 63.0278 73.6406 59.2295C74.3613 55.3331 74.9053 51.6043 75.585 48.624C75.9221 47.1458 76.2685 45.971 76.6387 45.1416C76.9993 44.3336 77.2488 44.1596 77.2568 44.1475L77.2451 44.1504L77.4102 44.0986C77.5449 44.0701 77.6038 44.1068 77.6973 44.1758C77.9695 44.3768 78.4551 44.9558 79.0303 46.4062C80.1655 49.2694 81.3007 54.5904 82.4355 63.7764L82.4434 63.8379L82.4551 63.8994C82.5871 64.5587 82.8349 65.1949 83.25 65.6973C83.665 66.1995 84.3755 66.6919 85.2979 66.5996C86.2165 66.5075 86.8145 65.8877 87.1221 65.3203C87.4309 64.7502 87.5508 64.0829 87.5508 63.418V63.3916L87.5498 63.3652C87.3419 56.8509 86.683 48.573 85.0537 42.0898C84.2444 38.8698 83.1556 35.9241 81.6475 33.8594C80.0989 31.7394 77.8961 30.3155 75.0703 30.9131L74.8428 30.9658C72.5188 31.5564 71.1536 33.4594 70.293 35.3896C69.3993 37.3942 68.8595 39.8509 68.3945 42.0264C67.9058 44.3127 67.5053 46.2455 66.9229 47.5801C66.6365 48.2361 66.3767 48.5707 66.1914 48.7217C66.0791 48.813 65.9866 48.8538 65.7773 48.8232C65.7325 48.7976 65.5522 48.6664 65.2949 48.1377C64.9481 47.4249 64.6384 46.3448 64.3516 44.9033C63.767 41.9648 63.411 38.3334 62.7734 34.3447C62.1607 30.5109 61.3002 26.488 59.7051 23.3965C58.0796 20.2462 55.519 17.7794 51.5234 17.7793C49.4376 17.7793 47.0647 18.8802 44.6621 20.458C42.1948 22.0783 39.433 24.3809 36.5117 27.1514C30.6635 32.6978 24.0231 40.2639 17.585 48.4062C12.2979 55.0928 7.12662 62.1934 2.62109 68.9248C0.920579 63.7577 0 58.2364 0 52.5C0 23.5051 23.5051 0 52.5 0Z" fill="white"/>
<path d="M52.5 0C81.4949 0 105 23.5051 105 52.5C105 81.4949 81.4949 105 52.5 105C41.8667 105 31.9722 101.838 23.7041 96.4043C24.0744 95.1702 24.4725 93.8757 24.9014 92.5332C27.0848 85.6984 29.9537 77.7152 33.0742 70.1143C36.1997 62.5014 39.5565 55.3252 42.709 50.0771C44.2891 47.4468 45.7785 45.3668 47.1201 43.9658C48.5364 42.4871 49.482 42.0869 49.9668 42.0869C50.4249 42.087 50.8981 42.2812 51.4463 42.9336C52.0256 43.6231 52.5806 44.7116 53.0996 46.2031C54.1369 49.1841 54.8485 53.2183 55.5732 57.4424C56.2827 61.5769 57.0064 65.9043 58.0889 69.1865C58.6294 70.8253 59.3038 72.3485 60.209 73.4893C61.1413 74.664 62.4285 75.5556 64.1084 75.5557C67.4594 75.5555 69.485 72.811 70.7549 69.9307C72.0719 66.9431 72.9381 63.0278 73.6406 59.2295C74.3613 55.3331 74.9053 51.6043 75.585 48.624C75.9221 47.1458 76.2685 45.971 76.6387 45.1416C76.9993 44.3336 77.2488 44.1596 77.2568 44.1475L77.2451 44.1504L77.4102 44.0986C77.5449 44.0701 77.6038 44.1068 77.6973 44.1758C77.9695 44.3768 78.4551 44.9558 79.0303 46.4062C80.1655 49.2694 81.3007 54.5904 82.4355 63.7764L82.4434 63.8379L82.4551 63.8994C82.5871 64.5587 82.8349 65.1949 83.25 65.6973C83.665 66.1995 84.3755 66.6919 85.2979 66.5996C86.2165 66.5075 86.8145 65.8877 87.1221 65.3203C87.4309 64.7502 87.5508 64.0829 87.5508 63.418V63.3916L87.5498 63.3652C87.3419 56.8509 86.683 48.573 85.0537 42.0898C84.2444 38.8698 83.1556 35.9241 81.6475 33.8594C80.0989 31.7394 77.8961 30.3155 75.0703 30.9131L74.8428 30.9658C72.5188 31.5564 71.1536 33.4594 70.293 35.3896C69.3993 37.3942 68.8595 39.8509 68.3945 42.0264C67.9058 44.3127 67.5053 46.2455 66.9229 47.5801C66.6365 48.2361 66.3767 48.5707 66.1914 48.7217C66.0791 48.813 65.9866 48.8538 65.7773 48.8232C65.7325 48.7976 65.5522 48.6664 65.2949 48.1377C64.9481 47.4249 64.6384 46.3448 64.3516 44.9033C63.767 41.9648 63.411 38.3334 62.7734 34.3447C62.1607 30.5109 61.3002 26.488 59.7051 23.3965C58.0796 20.2462 55.519 17.7794 51.5234 17.7793C49.4376 17.7793 47.0647 18.8802 44.6621 20.458C42.1948 22.0783 39.433 24.3809 36.5117 27.1514C30.6635 32.6978 24.0231 40.2639 17.585 48.4062C12.2979 55.0928 7.12662 62.1934 2.62109 68.9248C0.920579 63.7577 0 58.2364 0 52.5C0 23.5051 23.5051 0 52.5 0Z" fill="#0443F2"/>
<path d="M138.95 78C138.95 70.32 138.95 62.58 138.95 54.78C138.95 46.92 138.95 39.15 138.95 31.47C141.41 31.47 143.9 31.47 146.42 31.47C148.94 31.47 151.4 31.47 153.8 31.47C153.8 31.89 153.8 32.28 153.8 32.64C153.8 33 153.8 33.39 153.8 33.81C155.36 32.67 157.1 31.8 159.02 31.2C160.94 30.54 162.92 30.21 164.96 30.21C167.18 30.21 169.22 30.6 171.08 31.38C172.94 32.1 174.53 33.18 175.85 34.62C177.77 33.24 179.93 32.16 182.33 31.38C184.79 30.6 187.31 30.21 189.89 30.21C193.55 30.21 196.7 30.96 199.34 32.46C202.04 33.96 204.11 36.09 205.55 38.85C207.05 41.61 207.8 44.94 207.8 48.84C207.8 53.64 207.8 58.5 207.8 63.42C207.8 68.34 207.8 73.2 207.8 78C205.4 78 202.94 78 200.42 78C197.9 78 195.41 78 192.95 78C192.95 73.5 192.95 68.94 192.95 64.32C192.95 59.7 192.95 55.14 192.95 50.64C192.95 48.6 192.47 46.95 191.51 45.69C190.61 44.37 189.14 43.71 187.1 43.71C185.12 43.71 183.56 44.34 182.42 45.6C181.34 46.8 180.8 48.48 180.8 50.64C180.8 55.14 180.8 59.7 180.8 64.32C180.8 68.94 180.8 73.5 180.8 78C178.4 78 175.94 78 173.42 78C170.9 78 168.41 78 165.95 78C165.95 73.5 165.95 68.94 165.95 64.32C165.95 59.7 165.95 55.14 165.95 50.64C165.95 48.6 165.47 46.95 164.51 45.69C163.61 44.37 162.14 43.71 160.1 43.71C158.12 43.71 156.56 44.34 155.42 45.6C154.34 46.8 153.8 48.48 153.8 50.64C153.8 55.14 153.8 59.7 153.8 64.32C153.8 68.94 153.8 73.5 153.8 78C151.4 78 148.94 78 146.42 78C143.9 78 141.41 78 138.95 78ZM239.047 79.44C235.567 79.44 232.327 78.84 229.327 77.64C226.327 76.38 223.717 74.64 221.497 72.42C219.277 70.14 217.537 67.5 216.277 64.5C215.077 61.5 214.477 58.23 214.477 54.69C214.477 51.15 215.077 47.88 216.277 44.88C217.537 41.88 219.277 39.27 221.497 37.05C223.717 34.83 226.327 33.12 229.327 31.92C232.327 30.66 235.567 30.03 239.047 30.03C242.587 30.03 245.827 30.66 248.767 31.92C251.767 33.12 254.377 34.83 256.597 37.05C258.817 39.27 260.527 41.88 261.727 44.88C262.987 47.88 263.617 51.15 263.617 54.69C263.617 58.23 262.987 61.5 261.727 64.5C260.527 67.5 258.817 70.14 256.597 72.42C254.377 74.64 251.767 76.38 248.767 77.64C245.827 78.84 242.587 79.44 239.047 79.44ZM239.047 66.03C241.987 66.03 244.327 64.98 246.067 62.88C247.867 60.72 248.767 57.99 248.767 54.69C248.767 51.33 247.867 48.63 246.067 46.59C244.327 44.49 241.987 43.44 239.047 43.44C236.107 43.44 233.737 44.49 231.937 46.59C230.197 48.63 229.327 51.33 229.327 54.69C229.327 57.99 230.197 60.72 231.937 62.88C233.737 64.98 236.107 66.03 239.047 66.03ZM306.512 63.6C306.512 67.32 305.462 70.38 303.362 72.78C301.322 75.12 298.562 76.83 295.082 77.91C291.602 78.99 287.702 79.44 283.382 79.26C279.122 79.14 274.772 78.45 270.332 77.19C270.332 74.91 270.332 72.57 270.332 70.17C270.332 67.77 270.332 65.43 270.332 63.15C272.852 64.29 275.372 65.19 277.892 65.85C280.412 66.45 282.692 66.81 284.732 66.93C286.772 67.05 288.422 66.9 289.682 66.48C290.942 66 291.572 65.22 291.572 64.14C291.572 63.3 291.032 62.64 289.952 62.16C288.932 61.68 287.582 61.26 285.902 60.9C284.222 60.48 282.422 60 280.502 59.46C278.642 58.86 276.872 58.05 275.192 57.03C273.512 55.95 272.132 54.54 271.052 52.8C270.032 51 269.522 48.69 269.522 45.87C269.522 42.51 270.482 39.66 272.402 37.32C274.382 34.92 277.022 33.12 280.322 31.92C283.622 30.66 287.312 30.03 291.392 30.03C295.472 30.03 299.642 30.72 303.902 32.1C303.902 34.38 303.902 36.72 303.902 39.12C303.902 41.52 303.902 43.86 303.902 46.14C300.542 44.52 297.392 43.44 294.452 42.9C291.512 42.36 289.142 42.3 287.342 42.72C285.542 43.08 284.642 43.89 284.642 45.15C284.642 45.99 285.152 46.65 286.172 47.13C287.252 47.55 288.602 47.94 290.222 48.3C291.902 48.66 293.672 49.14 295.532 49.74C297.452 50.34 299.222 51.18 300.842 52.26C302.522 53.28 303.872 54.72 304.892 56.58C305.972 58.38 306.512 60.72 306.512 63.6ZM344.727 78C344.727 77.52 344.727 77.07 344.727 76.65C344.727 76.17 344.727 75.72 344.727 75.3C343.227 76.56 341.517 77.52 339.597 78.18C337.737 78.9 335.727 79.26 333.567 79.26C330.507 79.26 327.627 78.69 324.927 77.55C322.227 76.35 319.827 74.67 317.727 72.51C315.687 70.29 314.067 67.68 312.867 64.68C311.727 61.68 311.157 58.35 311.157 54.69C311.157 50.97 311.727 47.61 312.867 44.61C314.067 41.61 315.687 39.06 317.727 36.96C319.827 34.8 322.227 33.15 324.927 32.01C327.627 30.81 330.477 30.21 333.477 30.21C335.637 30.21 337.677 30.57 339.597 31.29C341.517 31.95 343.227 32.88 344.727 34.08C344.727 33.6 344.727 33.15 344.727 32.73C344.727 32.31 344.727 31.89 344.727 31.47C347.187 31.47 349.677 31.47 352.197 31.47C354.717 31.47 357.177 31.47 359.577 31.47C359.577 39.15 359.577 46.92 359.577 54.78C359.577 62.58 359.577 70.32 359.577 78C357.177 78 354.717 78 352.197 78C349.677 78 347.187 78 344.727 78ZM335.547 66.12C338.427 66.12 340.737 65.07 342.477 62.97C344.217 60.87 345.087 58.11 345.087 54.69C345.087 51.27 344.217 48.54 342.477 46.5C340.737 44.4 338.427 43.35 335.547 43.35C332.607 43.35 330.267 44.37 328.527 46.41C326.847 48.45 326.007 51.21 326.007 54.69C326.007 58.17 326.847 60.96 328.527 63.06C330.267 65.1 332.607 66.12 335.547 66.12ZM377.677 79.44C375.937 79.44 374.317 79.02 372.817 78.18C371.377 77.34 370.237 76.2 369.397 74.76C368.557 73.32 368.137 71.76 368.137 70.08C368.137 68.4 368.557 66.87 369.397 65.49C370.237 64.05 371.377 62.91 372.817 62.07C374.317 61.23 375.937 60.81 377.677 60.81C379.417 60.81 380.977 61.23 382.357 62.07C383.797 62.91 384.937 64.05 385.777 65.49C386.677 66.87 387.127 68.4 387.127 70.08C387.127 71.76 386.677 73.32 385.777 74.76C384.937 76.2 383.797 77.34 382.357 78.18C380.977 79.02 379.417 79.44 377.677 79.44ZM391.401 54.69C391.401 50.13 392.331 46.14 394.191 42.72C396.051 39.24 398.631 36.45 401.931 34.35C405.231 32.25 409.071 30.99 413.451 30.57C417.831 30.09 422.511 30.6 427.491 32.1C427.491 34.38 427.491 36.69 427.491 39.03C427.491 41.37 427.491 43.68 427.491 45.96C424.011 44.28 420.681 43.5 417.501 43.62C414.321 43.74 411.711 44.73 409.671 46.59C407.631 48.39 406.611 51.09 406.611 54.69C406.611 58.29 407.631 61.02 409.671 62.88C411.711 64.68 414.321 65.64 417.501 65.76C420.681 65.82 424.011 65.04 427.491 63.42C427.491 65.7 427.491 68.01 427.491 70.35C427.491 72.69 427.491 75 427.491 77.28C422.511 78.78 417.831 79.29 413.451 78.81C409.071 78.39 405.231 77.13 401.931 75.03C398.631 72.93 396.051 70.17 394.191 66.75C392.331 63.27 391.401 59.25 391.401 54.69ZM437.173 78C437.173 67.14 437.173 56.19 437.173 45.15C437.173 34.11 437.173 23.16 437.173 12.3C439.633 12.3 442.123 12.3 444.643 12.3C447.163 12.3 449.623 12.3 452.023 12.3C452.023 23.16 452.023 34.11 452.023 45.15C452.023 56.19 452.023 67.14 452.023 78C449.623 78 447.163 78 444.643 78C442.123 78 439.633 78 437.173 78ZM484.438 79.44C480.958 79.44 477.718 78.84 474.718 77.64C471.718 76.38 469.108 74.64 466.888 72.42C464.668 70.14 462.928 67.5 461.668 64.5C460.468 61.5 459.868 58.23 459.868 54.69C459.868 51.15 460.468 47.88 461.668 44.88C462.928 41.88 464.668 39.27 466.888 37.05C469.108 34.83 471.718 33.12 474.718 31.92C477.718 30.66 480.958 30.03 484.438 30.03C487.978 30.03 491.218 30.66 494.158 31.92C497.158 33.12 499.768 34.83 501.988 37.05C504.208 39.27 505.918 41.88 507.118 44.88C508.378 47.88 509.008 51.15 509.008 54.69C509.008 58.23 508.378 61.5 507.118 64.5C505.918 67.5 504.208 70.14 501.988 72.42C499.768 74.64 497.158 76.38 494.158 77.64C491.218 78.84 487.978 79.44 484.438 79.44ZM484.438 66.03C487.378 66.03 489.718 64.98 491.458 62.88C493.258 60.72 494.158 57.99 494.158 54.69C494.158 51.33 493.258 48.63 491.458 46.59C489.718 44.49 487.378 43.44 484.438 43.44C481.498 43.44 479.128 44.49 477.328 46.59C475.588 48.63 474.718 51.33 474.718 54.69C474.718 57.99 475.588 60.72 477.328 62.88C479.128 64.98 481.498 66.03 484.438 66.03ZM559.822 31.47C559.822 39.15 559.822 46.92 559.822 54.78C559.822 62.58 559.822 70.32 559.822 78C557.422 78 554.962 78 552.442 78C549.922 78 547.432 78 544.972 78C544.972 77.58 544.972 77.19 544.972 76.83C544.972 76.47 544.972 76.08 544.972 75.66C543.352 76.8 541.522 77.67 539.482 78.27C537.502 78.93 535.342 79.26 533.002 79.26C529.582 79.26 526.552 78.48 523.912 76.92C521.332 75.36 519.292 73.11 517.792 70.17C516.352 67.23 515.632 63.75 515.632 59.73C515.632 55.05 515.632 50.34 515.632 45.6C515.632 40.86 515.632 36.15 515.632 31.47C518.092 31.47 520.582 31.47 523.102 31.47C525.622 31.47 528.082 31.47 530.482 31.47C530.482 35.79 530.482 40.17 530.482 44.61C530.482 49.05 530.482 53.43 530.482 57.75C530.482 60.15 531.022 62.1 532.102 63.6C533.242 65.04 535.012 65.76 537.412 65.76C539.812 65.76 541.672 65.07 542.992 63.69C544.312 62.31 544.972 60.33 544.972 57.75C544.972 53.43 544.972 49.05 544.972 44.61C544.972 40.17 544.972 35.79 544.972 31.47C547.432 31.47 549.922 31.47 552.442 31.47C554.962 31.47 557.422 31.47 559.822 31.47ZM600.752 78C600.752 77.52 600.752 77.07 600.752 76.65C600.752 76.17 600.752 75.72 600.752 75.3C599.252 76.56 597.542 77.52 595.622 78.18C593.762 78.9 591.752 79.26 589.592 79.26C586.532 79.26 583.652 78.66 580.952 77.46C578.252 76.26 575.852 74.58 573.752 72.42C571.712 70.2 570.092 67.59 568.892 64.59C567.752 61.59 567.182 58.29 567.182 54.69C567.182 51.03 567.752 47.7 568.892 44.7C570.092 41.7 571.712 39.12 573.752 36.96C575.852 34.8 578.252 33.15 580.952 32.01C583.652 30.81 586.502 30.21 589.502 30.21C591.662 30.21 593.702 30.57 595.622 31.29C597.542 31.95 599.252 32.88 600.752 34.08C600.752 30.48 600.752 26.85 600.752 23.19C600.752 19.53 600.752 15.9 600.752 12.3C603.212 12.3 605.702 12.3 608.222 12.3C610.742 12.3 613.202 12.3 615.602 12.3C615.602 23.16 615.602 34.11 615.602 45.15C615.602 56.19 615.602 67.14 615.602 78C613.202 78 610.742 78 608.222 78C605.702 78 603.212 78 600.752 78ZM591.572 66.12C594.452 66.12 596.762 65.07 598.502 62.97C600.242 60.87 601.112 58.11 601.112 54.69C601.112 51.27 600.242 48.54 598.502 46.5C596.762 44.4 594.452 43.35 591.572 43.35C588.632 43.35 586.292 44.37 584.552 46.41C582.872 48.45 582.032 51.21 582.032 54.69C582.032 58.17 582.872 60.96 584.552 63.06C586.292 65.1 588.632 66.12 591.572 66.12Z" fill="#0443F2"/>
</svg>
